<?xml version="1.0" encoding="UTF-8"?>
<svg xmlns="http://www.w3.org/2000/svg" id="Layer_2" data-name="Layer 2" viewBox="0 0 52.01 55.58">
  <defs>
    <style>
      .cls-1 {
        fill: #fff;
      }
    </style>
  </defs>
  <g id="Layer_2-2" data-name="Layer 2">
    <g id="Layer_1-2" data-name="Layer 1-2">
      <g>
        <path class="cls-1" d="m14.24,27.2c1.5,2.09,3.65,3,6.15,3.58-.3-.8-.5-1.49-.81-2.11-.13-.26-.49-.47-.79-.56-.95-.3-1.93-.53-2.99-.81.48-.81.86-1.43,1.33-2.23-1.08.79-1.98,1.46-2.9,2.12m21.91.12c-1.12.29-2.1.52-3.07.79-.23.06-.55.15-.63.32-.33.74-.59,1.51-.91,2.33,2.77-.51,5.08-1.89,6.1-3.59-.86-.63-1.73-1.25-2.59-1.88-.03.03-.07.06-.1.09.35.57.7,1.14,1.19,1.94"></path>
        <path class="cls-1" d="m37.66,13.07c-1.91-.9-3.49-2.16-4.84-3.73-.28-.32-.68-.57-1.07-.79-.61-.34-1.24-.45-1.79.13-.48.52-.52,1.43,0,2.02.41.45.92.87,1.47,1.15,1.94,1.01,4.1,1.03,6.21,1.22m-23.45-.07c.03.1.07.19.1.29,1.83-.37,3.69-.63,5.48-1.15.82-.24,1.57-.89,2.21-1.51.53-.52.42-1.45-.04-1.94-.55-.6-1.18-.45-1.78-.13-.32.17-.64.38-.88.64-1.46,1.58-3.03,3.01-5.08,3.81m33.83,9c-3.23-3.62-8.32-2.57-11.96-.15,4.21,3.71,9.37,3.88,11.96.15m-44.22.02c1.15,1.42,2.52,2.36,4.29,2.61,3.07.43,5.49-.99,7.87-2.81-1.42-.93-2.91-1.47-4.44-1.88-2.94-.77-5.53-.18-7.73,2.07m28.95-.61c-1.17-1.46-2.36-2.8-3.39-4.24-1.64-2.3-2.7-4.84-2.6-7.74.09-2.66,2.2-4.19,4.7-3.25,1.15.43,2.18,1.22,3.23,1.9,1.84,1.2,3.55,2.63,5.48,3.65,3.23,1.72,6.24.21,7.18-3.07.86-3.02-1.41-6.52-4.52-7.2-1.35-.3-2.7-.24-4.03.15-.24.07-.47.12-.83.21,2.68-2.6,8.23-2.7,10.45,1.6,2.34,4.52.03,10.04-4.96,11.32-3.45.88-6.97,1.13-10.47.13-1.47-.42-2.87-1-4.06-2.34,1.07,3.21,2.98,5.59,5.29,7.74,3.09-1.99,6.38-3.24,10.09-2.51,3,.59,5.34,2.4,7.69,4.36-2.43,2.37-5.09,4.16-8.46,4.54-3.49.38-6.27-1.21-8.78-3.53-1.5,1.52-2.63,3.23-3.43,5.16-1.32,3.18-1.8,6.51-1.57,9.91.21,3.21.66,6.4.9,9.61.13,1.68.1,3.39,0,5.08-.02.48-.4,1.05-.78,1.39-1.88,1.71-5.85,1.72-7.81.09-.91-.76-1.14-1.84-1.1-2.91.07-1.77.28-3.54.48-5.31.46-4.03,1.06-8.06.57-12.13-.46-3.81-1.71-7.32-4.28-10.27-.17-.2-.33-.4-.55-.66-.31.26-.55.45-.77.65-1.45,1.4-3.22,2.23-5.13,2.75-1.49.41-3.02.31-4.5-.12-2.65-.77-4.89-2.2-6.81-4.18,4.74-4.48,10.11-6.75,17.69-1.96,2.28-2.04,4.13-4.39,5.19-7.43-3.18,2.51-6.77,2.92-10.52,2.55-1.12-.11-2.23-.27-3.33-.48-4.03-.79-6.52-4.05-6.39-8.18.1-3.34,2.04-5.6,4.57-6.36,2.41-.73,4.63-.25,6.63,1.33-1.25-.12-2.45-.35-3.64-.32-2.41.08-4.15,1.33-5.19,3.48-.99,2.06-.86,4.05.58,5.89,1.33,1.7,3.67,2.31,5.81,1.17,1.88-1,3.61-2.31,5.39-3.5.89-.59,1.73-1.28,2.67-1.8,1.39-.78,2.87-1.09,4.27-.05,1.43,1.07,1.6,2.62,1.39,4.25-.44,3.53-2.29,6.35-4.57,8.95-.46.53-.93,1.05-1.42,1.6.73.85,1.47,1.62,2.11,2.47,1.56,2.1,2.18,4.55,2.53,7.08.58,4.23,0,8.4-.57,12.59-.31,2.25-.6,4.52-.66,6.79-.07,2.93,2.78,4.48,5.35,3.03,1.49-.85,1.56-2.34,1.54-3.79,0-1.12-.22-2.24-.37-3.35-.53-4.04-1.29-8.07-1.17-12.17.08-2.75.44-5.47,1.55-8.04.76-1.77,1.99-3.19,3.31-4.52"></path>
        <path class="cls-1" d="m36.16,27.32c-.49-.81-.84-1.37-1.19-1.94.03-.03.06-.06.1-.09.86.63,1.73,1.26,2.59,1.88-1.01,1.7-3.33,3.08-6.1,3.59.31-.82.57-1.59.91-2.33.08-.17.4-.26.63-.32.97-.26,1.94-.5,3.07-.79"></path>
        <path class="cls-1" d="m14.25,27.2c.91-.67,1.81-1.33,2.89-2.13-.47.79-.85,1.42-1.33,2.23,1.06.28,2.04.51,2.99.81.3.09.66.31.79.56.32.62.51,1.3.81,2.11-2.51-.58-4.65-1.49-6.15-3.58"></path>
      </g>
    </g>
  </g>
</svg>
